<svg id="Capa_1" enable-background="new 0 0 512 512" height="512" viewBox="0 0 512 512" width="512" xmlns="http://www.w3.org/2000/svg"><g><g><g><g><g><g><g><g><g><g><g><g><path d="m416.241 54.482c-9.693-9.626-25.533-9.856-35.056-.061-.265.272-.535.537-.81.795-3.368 3.159-8.456 3.597-12.482 1.335-16.408-9.219-33.705-16.259-51.476-21.111-4.606-1.258-7.904-5.36-8.011-10.133-.004-.155-.006-.311-.006-.467v-.01c-.09-13.774-11.306-24.878-25.08-24.83l-56.75.199c-13.726.048-24.774 11.288-24.586 25.013.001.157 0 .315-.003.472-.075 4.772-3.342 8.895-7.937 10.184-17.738 4.976-34.988 12.138-51.332 21.473-4.008 2.289-9.097 1.886-12.487-1.248-.277-.256-.549-.519-.816-.79-9.593-9.727-25.43-9.389-35.056.305l-39.871 40.15c-9.558 9.626-9.782 25.601-.058 35.06.108.105.215.211.321.318 3.449 3.481 4.127 8.831 1.729 13.106-9.181 16.367-16.196 33.618-21.035 51.339-1.291 4.727-5.607 7.991-10.507 8.018l-.094.001h-.01c-13.773.091-24.877 11.308-24.829 25.082l.198 56.505c.049 13.761 11.243 24.878 25.004 24.829h.01c.156-.001.312 0 .467.003 4.774.074 8.9 3.343 10.189 7.94 4.971 17.718 12.123 34.949 21.442 51.277 2.399 4.204 1.756 9.479-1.612 12.956-.131.135-.263.268-.397.401-9.657 9.522-9.317 25.498.307 35.055l40.15 39.87c9.694 9.627 25.533 9.853 35.058.059.265-.272.535-.537.81-.795 3.367-3.157 8.452-3.596 12.476-1.335 16.41 9.221 33.711 16.262 51.483 21.114 4.604 1.257 7.898 5.357 8.007 10.128.004.157.006.314.006.472v.011c0 13.747 11.17 24.878 24.917 24.83l56.421-.198c13.802-.048 24.989-11.203 25.078-25.005v-.01c-.001-.153 0-.305.003-.457.072-4.781 3.347-8.911 7.95-10.202 17.729-4.975 34.97-12.133 51.308-21.463 4.016-2.294 9.116-1.89 12.51 1.252.27.25.536.508.797.772 9.598 9.727 25.434 9.397 35.063-.299l39.87-40.151c9.558-9.626 9.782-25.601.058-35.06-2.315-2.252-4.104-4.88-5.367-7.707 10.826-18.05 18.948-37.264 24.354-57.064 1.256-4.602 5.355-7.895 10.124-8.004.158-.004.316-.006.475-.006h.01c13.761-.048 24.878-11.243 24.829-25.004l-.198-56.661c-.048-13.749-11.255-24.843-25.003-24.752h-.01c-.159.001-.318 0-.476-.003-4.769-.076-8.889-3.339-10.178-7.931-5.544-19.763-13.801-38.92-24.753-56.894 1.243-2.836 3.013-5.476 5.312-7.744 9.657-9.527 9.324-25.5-.302-35.059z" fill="#7fb2f9"/></g></g></g></g></g><circle cx="256" cy="256" fill="#9bc4f9" r="184.917"/><path d="m344.95 256c0-70.143-45.821-129.579-109.161-150.022-74.038 9.879-131.148 73.281-131.148 150.022s57.111 140.143 131.149 150.022c63.34-20.444 109.16-79.879 109.16-150.022z" fill="#eaf2ff"/><path d="m256 104.641c-11.562 0-22.819 1.302-33.638 3.758 67.403 15.297 117.721 75.57 117.721 147.602s-50.319 132.305-117.721 147.602c10.819 2.455 22.076 3.757 33.638 3.757 83.593 0 151.359-67.766 151.359-151.359 0-83.594-67.766-151.36-151.359-151.36z" fill="#dbe8f9"/></g></g></g></g></g><g><path d="m224.981 339.291c-5.372 0-10.53-2.171-14.289-6.039l-49.548-50.984c-7.67-7.892-7.49-20.508.403-28.178 7.892-7.67 20.508-7.49 28.177.402l34.139 35.127 87.793-105.105c7.055-8.446 19.622-9.574 28.068-2.519 8.447 7.055 9.574 19.622 2.519 28.068l-101.967 122.075c-3.618 4.333-8.904 6.927-14.544 7.139-.251.01-.501.014-.751.014z" fill="#9bc4f9"/></g></g></g></svg>